<svg width="18" height="15" viewBox="0 0 18 15" fill="none" xmlns="http://www.w3.org/2000/svg">
<path d="M17 7.49983L17.2828 7.21698L17.5657 7.49982L17.2828 7.78267L17 7.49983ZM1.27149 7.89983H0.871493V7.09982H1.27149V7.89983ZM10.3692 0.869141L10.652 0.586296L17.2828 7.21698L17 7.49983L16.7172 7.78267L10.0864 1.15199L10.3692 0.869141ZM17 7.49983L17.2828 7.78267L10.6521 14.4135L10.3692 14.1306L10.0864 13.8478L16.7172 7.21698L17 7.49983ZM17 7.49983V7.89983H5.57353V7.49983V7.09982H17V7.49983ZM5.57353 7.49983V7.89983H1.27149V7.49983V7.09982H5.57353V7.49983Z" fill="currentColor"/>
</svg>
