<svg width="54" height="54" viewBox="0 0 54 54" fill="none" xmlns="http://www.w3.org/2000/svg">
<g clip-path="url(#clip0_439_5)">
<path d="M27 54C41.9117 54 54 41.9117 54 27C54 12.0883 41.9117 0 27 0C12.0883 0 0 12.0883 0 27C0 41.9117 12.0883 54 27 54Z" fill="#F0F0F0"/>
<path d="M25.8261 27H54C54 24.563 53.6751 22.2022 53.0698 19.9565H25.8261V27Z" fill="#D80027"/>
<path d="M25.8261 12.9131H50.0371C48.3843 10.216 46.271 7.83211 43.8071 5.86954H25.8261V12.9131Z" fill="#D80027"/>
<path d="M27 54C33.3544 54 39.1949 51.8037 43.8071 48.1304H10.1929C14.8051 51.8037 20.6456 54 27 54Z" fill="#D80027"/>
<path d="M3.96287 41.0869H50.0371C51.364 38.9218 52.3931 36.555 53.0699 34.0434H0.930115C1.60691 36.555 2.63597 38.9218 3.96287 41.0869Z" fill="#D80027"/>
<path d="M12.5069 4.21643H14.9674L12.6787 5.87914L13.5529 8.56955L11.2644 6.90683L8.97581 8.56955L9.73097 6.24533C7.71588 7.92387 5.9497 9.89044 4.49423 12.0817H5.28261L3.82577 13.14C3.5988 13.5187 3.38112 13.9033 3.1725 14.2937L3.86817 16.4348L2.57027 15.4918C2.24764 16.1753 1.95254 16.8743 1.68729 17.5878L2.45373 19.9469H5.28261L2.99394 21.6096L3.86817 24.3L1.57961 22.6373L0.208723 23.6333C0.0715078 24.7363 0 25.8598 0 27H27C27 12.0884 27 10.3305 27 0C21.6662 0 16.6941 1.54723 12.5069 4.21643ZM13.5529 24.3L11.2644 22.6373L8.97581 24.3L9.85004 21.6096L7.56137 19.9469H10.3903L11.2644 17.2565L12.1385 19.9469H14.9674L12.6787 21.6096L13.5529 24.3ZM12.6787 13.7444L13.5529 16.4348L11.2644 14.7721L8.97581 16.4348L9.85004 13.7444L7.56137 12.0817H10.3903L11.2644 9.39125L12.1385 12.0817H14.9674L12.6787 13.7444ZM23.2377 24.3L20.9492 22.6373L18.6606 24.3L19.5348 21.6096L17.2461 19.9469H20.075L20.9492 17.2565L21.8233 19.9469H24.6522L22.3635 21.6096L23.2377 24.3ZM22.3635 13.7444L23.2377 16.4348L20.9492 14.7721L18.6606 16.4348L19.5348 13.7444L17.2461 12.0817H20.075L20.9492 9.39125L21.8233 12.0817H24.6522L22.3635 13.7444ZM22.3635 5.87914L23.2377 8.56955L20.9492 6.90683L18.6606 8.56955L19.5348 5.87914L17.2461 4.21643H20.075L20.9492 1.52603L21.8233 4.21643H24.6522L22.3635 5.87914Z" fill="#0052B4"/>
</g>
<defs>
<clipPath id="clip0_439_5">
<rect width="54" height="54" fill="white"/>
</clipPath>
</defs>
</svg>
