<svg width="27" height="27" viewBox="0 0 27 27" fill="none" xmlns="http://www.w3.org/2000/svg">
<circle cx="13.3496" cy="13.3496" r="12.75" fill="#BECFFF" fill-opacity="0.25"/>
<path d="M13.3496 26.0996C16.2994 26.0996 19.1579 25.0768 21.4381 23.2055C23.7183 21.3342 25.2791 18.7301 25.8546 15.837C26.4301 12.9439 25.9846 9.94078 24.5941 7.3393C23.2036 4.73783 20.9541 2.69898 18.2288 1.57015C15.5036 0.441314 12.4712 0.292344 9.64848 1.14862C6.82572 2.00489 4.38718 3.81343 2.74837 6.26609C1.10956 8.71874 0.371876 11.6637 0.661004 14.5993C0.950132 17.5349 2.24819 20.2794 4.334 22.3652" stroke="#3E72F6" stroke-width="1.2" stroke-linecap="round"/>
<path d="M19.0156 10.5156L13.3343 17.3332C12.6788 18.1199 12.351 18.5132 11.9104 18.5332C11.4698 18.5532 11.1078 18.1911 10.3837 17.467L7.68229 14.7656" stroke="#3E72F6" stroke-width="1.2" stroke-linecap="round"/>
</svg>
