<svg width="19" height="19" viewBox="0 0 19 19" fill="none" xmlns="http://www.w3.org/2000/svg">
<path d="M6.35938 8.97656L6.35937 3.69634C6.35937 1.96146 7.76577 0.555063 9.50065 0.555063V0.555063C11.2355 0.555064 12.6419 1.96146 12.6419 3.69634L12.6419 8.97656" stroke="#0F2D64" stroke-width="0.8" stroke-linecap="round"/>
<path d="M4.15625 6.21875H14.8428C15.0761 6.21875 15.2123 6.2187 15.3096 6.23145C15.3479 6.23648 15.3687 6.24247 15.3789 6.24609C15.3831 6.2554 15.3907 6.2757 15.3984 6.31543C15.4078 6.36359 15.4154 6.42198 15.4219 6.49707L15.4414 6.78125L16.1025 17.4131C16.1187 17.6736 16.1274 17.8281 16.1191 17.9385C16.1159 17.9814 16.109 18.0048 16.1055 18.0166C16.0939 18.0209 16.0709 18.0283 16.0283 18.0342C15.9187 18.0492 15.7639 18.0508 15.5029 18.0508H3.49609C3.2351 18.0508 3.08032 18.0492 2.9707 18.0342C2.92706 18.0282 2.90385 18.0209 2.89258 18.0166C2.88901 18.0047 2.88307 17.9811 2.87988 17.9385C2.87577 17.8833 2.87672 17.8172 2.87988 17.7324L2.89648 17.4131L3.55762 6.78125C3.57211 6.54812 3.58181 6.4118 3.60059 6.31543C3.60825 6.27621 3.61495 6.25557 3.61914 6.24609C3.62899 6.24248 3.65002 6.23662 3.68945 6.23145C3.73811 6.22507 3.79671 6.2225 3.87207 6.2207L4.15625 6.21875Z" stroke="#0F2D64" stroke-width="0.8"/>
</svg>
