<svg width="45" height="46" viewBox="0 0 45 46" fill="none" xmlns="http://www.w3.org/2000/svg">
<path d="M20.1983 5.18451C13.9715 8.81678 8.43665 17.811 7.74479 24.0377C9.12851 23.3459 10.3393 23.1729 11.723 23.1729C16.3931 23.1729 20.1983 26.9782 20.1983 32.686C20.1983 38.7398 15.5282 42.1991 11.0311 42.1991C4.80438 42.1991 0.826172 37.3561 0.826172 30.0915C0.826172 20.4055 8.09072 8.98975 19.3335 3.80078L20.1983 5.18451ZM25.0413 30.0915C25.0413 20.4055 32.3059 8.98975 43.5486 3.80078L44.4134 5.18451C38.1867 8.81678 32.6518 17.811 31.9599 24.0377C33.3437 23.3459 34.5544 23.1729 35.9381 23.1729C40.6082 23.1729 44.4134 26.9782 44.4134 32.686C44.4134 38.7398 39.7434 42.1991 35.2463 42.1991C29.0195 42.1991 25.0413 37.3561 25.0413 30.0915Z" fill="#3D71F5"/>
</svg>
