<svg width="16" height="17" viewBox="0 0 16 17" fill="none" xmlns="http://www.w3.org/2000/svg">
<path d="M15 16C15 13.0795 11.3098 10.7054 8 10.7054C4.69021 10.7054 1 13.0795 1 16M8 8.05892C9.06083 8.05892 10.0782 7.68707 10.8283 7.02516C11.5785 6.36326 11.9999 5.46553 11.9999 4.52946C11.9999 3.59339 11.5785 2.69566 10.8283 2.03375C10.0782 1.37185 9.06083 1 8 1C6.93917 1 5.92179 1.37185 5.17167 2.03375C4.42155 2.69566 4.00013 3.59339 4.00013 4.52946C4.00013 5.46553 4.42155 6.36326 5.17167 7.02516C5.92179 7.68707 6.93917 8.05892 8 8.05892Z" stroke="#00677F" stroke-width="1.3" stroke-linecap="square" stroke-linejoin="round"/>
</svg>
