<?xml version="1.0" encoding="UTF-8"?><svg id="Defy_skin_aging_for_results_beyond_the_surface" xmlns="http://www.w3.org/2000/svg" viewBox="0 0 30.24 30.24"><defs><style>.cls-1{fill:none;stroke:#231f20;stroke-miterlimit:10;stroke-width:.5px;}</style></defs><path class="cls-1" d="m15.53,22.62H3.7V7.62h11.83c-4.14,0-7.5,3.36-7.5,7.5s3.36,7.5,7.5,7.5Z"/><path class="cls-1" d="m15.53,21.75c.55.29,1.14.52,1.76.66-.56.14-1.15.21-1.76.21-4.14,0-7.5-3.36-7.5-7.5s3.36-7.5,7.5-7.5c.61,0,1.19.07,1.76.21-.62.15-1.21.37-1.76.66-2.37,1.26-3.98,3.75-3.98,6.63s1.61,5.36,3.98,6.62Z"/><path class="cls-1" d="m23.03,15.12c0,3.53-2.44,6.5-5.74,7.29-.62-.15-1.21-.37-1.76-.66-2.37-1.26-3.98-3.75-3.98-6.62s1.61-5.36,3.98-6.63c.55-.29,1.14-.52,1.76-.66,3.29.79,5.74,3.75,5.74,7.29Z"/><path class="cls-1" d="m26.54,15.12c0,4.14-3.36,7.5-7.5,7.5-.61,0-1.19-.07-1.76-.21,3.29-.79,5.74-3.75,5.74-7.29s-2.44-6.5-5.74-7.29c.56-.14,1.15-.21,1.76-.21,4.14,0,7.5,3.36,7.5,7.5Z"/></svg>