<?xml version="1.0" encoding="UTF-8"?>
<svg id="Target_all_signs_of_aging" data-name="Target all signs of aging" xmlns="http://www.w3.org/2000/svg" viewBox="0 0 30.24 30.24">
  <defs>
    <style>
      .cls-1 {
        fill: none;
        stroke: #231f20;
        stroke-miterlimit: 10;
        stroke-width: .5px;
      }
    </style>
  </defs>
  <path class="cls-1" d="M13.21,25.74c-4.42-.79-7.91-4.28-8.7-8.7"/>
  <path class="cls-1" d="M25.74,17.04c-.79,4.42-4.28,7.91-8.71,8.7"/>
  <path class="cls-1" d="M17.03,4.49c4.43.79,7.92,4.28,8.71,8.71"/>
  <path class="cls-1" d="M4.51,13.2c.79-4.43,4.28-7.92,8.7-8.71"/>
  <path class="cls-1" d="M17.04,4.39s0,.07-.01.1c-.04,1.02-.88,1.83-1.91,1.83s-1.88-.81-1.92-1.83c-.01-.03-.01-.07-.01-.1,0-1.06.87-1.92,1.93-1.92s1.92.86,1.92,1.92Z"/>
  <path class="cls-1" d="M17.04,25.83c0,1.07-.86,1.93-1.92,1.93s-1.93-.86-1.93-1.93c0-.03,0-.07.01-.1.04-1.01.89-1.82,1.92-1.82s1.87.81,1.91,1.82c.01.03.01.07.01.1Z"/>
  <path class="cls-1" d="M27.77,15.11c0,1.07-.86,1.93-1.92,1.93-.03,0-.07,0-.1-.01-1.02-.05-1.83-.88-1.83-1.92s.81-1.87,1.83-1.91c.03-.01.07-.01.1-.01,1.06,0,1.92.86,1.92,1.92Z"/>
  <path class="cls-1" d="M6.33,15.11c0,1.04-.81,1.87-1.82,1.92-.03.01-.07.01-.1.01-1.06,0-1.93-.86-1.93-1.93s.87-1.92,1.93-1.92c.03,0,.07,0,.1.01,1.01.04,1.82.88,1.82,1.91Z"/>
  <line class="cls-1" x1="6.33" y1="15.12" x2="11.49" y2="15.12"/>
  <line class="cls-1" x1="18.75" y1="15.12" x2="23.92" y2="15.12"/>
  <line class="cls-1" x1="15.12" y1="6.32" x2="15.12" y2="11.49"/>
  <line class="cls-1" x1="15.12" y1="18.75" x2="15.12" y2="23.92"/>
</svg>