<svg width="61" height="61" viewBox="0 0 61 61" fill="none" xmlns="http://www.w3.org/2000/svg">
<g clip-path="url(#clip0_2198_2913)">
<path d="M19.808 49.4969C30.1269 49.4969 38.492 41.1318 38.492 30.8129C38.492 20.494 30.1269 12.1289 19.808 12.1289C9.48914 12.1289 1.12402 20.494 1.12402 30.8129C1.12402 41.1318 9.48914 49.4969 19.808 49.4969Z" stroke="#0F2D64" stroke-width="1.5" stroke-miterlimit="10"/>
<path d="M40.8276 49.4969C51.1464 49.4969 59.5116 41.1318 59.5116 30.8129C59.5116 20.494 51.1464 12.1289 40.8276 12.1289C30.5087 12.1289 22.1436 20.494 22.1436 30.8129C22.1436 41.1318 30.5087 49.4969 40.8276 49.4969Z" stroke="#0F2D64" stroke-width="1.5" stroke-miterlimit="10"/>
<path d="M19.8081 45.4067C27.867 45.4067 34.4001 38.8736 34.4001 30.8147C34.4001 22.7557 27.867 16.2227 19.8081 16.2227C11.7491 16.2227 5.21606 22.7557 5.21606 30.8147C5.21606 38.8736 11.7491 45.4067 19.8081 45.4067Z" stroke="#0F2D64" stroke-width="1.5" stroke-miterlimit="10"/>
</g>
<defs>
<clipPath id="clip0_2198_2913">
<rect width="60" height="60" fill="white" transform="translate(0.317383 0.8125)"/>
</clipPath>
</defs>
</svg>
