<svg width="60" height="60" viewBox="0 0 60 60" fill="none" xmlns="http://www.w3.org/2000/svg">
<path d="M29.9999 39.118C44.5697 39.118 56.3807 35.0359 56.3807 30.0004C56.3807 24.9649 44.5697 20.8828 29.9999 20.8828C15.4302 20.8828 3.61914 24.9649 3.61914 30.0004C3.61914 35.0359 15.4302 39.118 29.9999 39.118Z" stroke="currentColor" stroke-width="1.5" stroke-miterlimit="10"/>
<path d="M30.0004 56.3827C35.0359 56.3827 39.118 44.5716 39.118 30.0019C39.118 15.4322 35.0359 3.62109 30.0004 3.62109C24.9649 3.62109 20.8828 15.4322 20.8828 30.0019C20.8828 44.5716 24.9649 56.3827 30.0004 56.3827Z" stroke="currentColor" stroke-width="1.5" stroke-miterlimit="10"/>
<path d="M30.0002 35.8227C33.2132 35.8227 35.8178 33.2181 35.8178 30.0051C35.8178 26.7921 33.2132 24.1875 30.0002 24.1875C26.7872 24.1875 24.1826 26.7921 24.1826 30.0051C24.1826 33.2181 26.7872 35.8227 30.0002 35.8227Z" stroke="currentColor" stroke-width="1.5" stroke-miterlimit="10"/>
</svg>
