<svg width="61" height="60" viewBox="0 0 61 60" fill="none" xmlns="http://www.w3.org/2000/svg">
<path d="M30.3178 55.8701C44.1996 55.8701 55.453 44.8042 55.453 31.1538C55.453 17.5034 44.1996 6.4375 30.3178 6.4375C16.436 6.4375 5.18262 17.5034 5.18262 31.1538C5.18262 44.8042 16.436 55.8701 30.3178 55.8701Z" stroke="currentColor" stroke-width="1.5" stroke-miterlimit="10" stroke-dasharray="3.68 3.68"/>
<path d="M30.317 43.952C37.5051 43.952 43.3322 38.222 43.3322 31.1538C43.3322 24.0855 37.5051 18.3555 30.317 18.3555C23.1289 18.3555 17.3018 24.0855 17.3018 31.1538C17.3018 38.222 23.1289 43.952 30.317 43.952Z" stroke="currentColor" stroke-width="1.5" stroke-miterlimit="10"/>
<path d="M30.3172 33.3339C31.542 33.3339 32.5348 32.3576 32.5348 31.1533C32.5348 29.949 31.542 28.9727 30.3172 28.9727C29.0925 28.9727 28.0996 29.949 28.0996 31.1533C28.0996 32.3576 29.0925 33.3339 30.3172 33.3339Z" fill="currentColor"/>
<path d="M31.2773 30.4646L55.3661 3.94531" stroke="currentColor" stroke-width="1.5" stroke-miterlimit="10"/>
</svg>
